<svg width="160" height="100" viewBox="0 0 160 32" fill="none" xmlns="http://www.w3.org/2000/svg">
<path d="M16 0C7.16344 0 0 7.16344 0 16C0 19.2026 0.940925 22.1854 2.56141 24.6871C6.02449 21.2928 10.7678 19.2 16 19.2C21.2322 19.2 25.9755 21.2928 29.4386 24.6871C31.0591 22.1854 32 19.2026 32 16C32 7.16344 24.8366 0 16 0Z" fill="#E83777"/>
<path d="M27.9725 26.6144C24.9253 23.5191 20.6868 21.6 16.0001 21.6C11.3133 21.6 7.07485 23.5191 4.02759 26.6144C6.95865 29.9181 11.2362 32 16.0001 32C20.7639 32 25.0415 29.9181 27.9725 26.6144Z" fill="#FF82AF"/>
<path d="M56.8126 25.114C56.8126 25.418 56.7435 25.6395 56.6052 25.7785C56.4756 25.9262 56.2682 26 55.983 26C55.741 26 55.512 25.9262 55.296 25.7785C55.0886 25.6395 54.8855 25.4745 54.6867 25.2834C54.4966 25.0923 54.3108 24.9229 54.1293 24.7752C53.9565 24.6276 53.7837 24.5537 53.6108 24.5537C53.4207 24.5537 53.2004 24.6276 52.9497 24.7752C52.7078 24.9229 52.4096 25.0923 52.0553 25.2834C51.7096 25.4658 51.2862 25.6308 50.785 25.7785C50.2837 25.9262 49.6745 26 48.9572 26C47.5659 26 46.3128 25.7742 45.198 25.3225C44.0919 24.8621 43.1499 24.215 42.3722 23.3811C41.6031 22.5385 41.0154 21.5353 40.6092 20.3713C40.2031 19.1987 40 17.8914 40 16.4495C40 15.0597 40.2333 13.7785 40.7 12.6059C41.1666 11.4332 41.8191 10.4126 42.6574 9.54397C43.4956 8.67535 44.4765 8.00217 45.5999 7.52443C46.732 7.04669 47.9591 6.80782 49.2813 6.80782C50.1714 6.80782 50.8887 6.88599 51.4331 7.04234C51.9862 7.1987 52.4269 7.35939 52.7553 7.52443C53.0923 7.68078 53.3602 7.75896 53.559 7.75896C53.7923 7.75896 53.9824 7.68512 54.1293 7.53746C54.2849 7.38979 54.4405 7.24647 54.596 7.10749C54.7516 6.95983 54.946 6.88599 55.1793 6.88599C55.3522 6.88599 55.4948 6.94245 55.6071 7.05537C55.7194 7.1683 55.8145 7.36373 55.8923 7.64169L57.2145 12.3062C57.2836 12.5233 57.262 12.7188 57.1497 12.8925C57.0373 13.0662 56.8688 13.1792 56.6441 13.2313C56.4108 13.2834 56.1991 13.266 56.0089 13.1792C55.8188 13.0923 55.6719 12.9273 55.5682 12.684C55.1016 11.5983 54.5701 10.747 53.9738 10.1303C53.3862 9.51357 52.7553 9.07926 52.0812 8.82736C51.4072 8.56678 50.7072 8.43648 49.9813 8.43648C48.9788 8.43648 48.1017 8.72747 47.3499 9.30945C46.6067 9.88273 46.032 10.7079 45.6258 11.785C45.2196 12.8534 45.0166 14.1216 45.0166 15.5896C45.0166 17.3789 45.2499 18.886 45.7166 20.1107C46.1919 21.3355 46.84 22.2606 47.661 22.886C48.4819 23.5027 49.4066 23.8111 50.435 23.8111C50.7461 23.8111 51.0226 23.7763 51.2646 23.7068C51.5066 23.6287 51.7096 23.5244 51.8738 23.3941C52.038 23.2552 52.159 23.0945 52.2368 22.9121C52.3232 22.721 52.3664 22.5081 52.3664 22.2736V19.0945C52.3664 18.9034 52.3189 18.76 52.2238 18.6645C52.1374 18.5689 51.9516 18.4864 51.6664 18.4169L50.9405 18.2476C50.7158 18.1868 50.5387 18.0999 50.4091 17.987C50.2794 17.8654 50.2146 17.7134 50.2146 17.5309C50.2146 17.3225 50.2881 17.1618 50.435 17.0489C50.5905 16.9273 50.8195 16.8664 51.122 16.8664H57.5256C57.8367 16.8664 58.0657 16.9273 58.2126 17.0489C58.3595 17.1618 58.433 17.3181 58.433 17.5179C58.433 17.6916 58.3854 17.835 58.2904 17.9479C58.1953 18.0521 58.0484 18.1433 57.8496 18.2215L57.4348 18.3518C57.2274 18.4213 57.0719 18.5125 56.9682 18.6254C56.8645 18.7296 56.8126 18.886 56.8126 19.0945V25.114Z" fill="black"/>
<path d="M68.2848 23.3811V22.873L68.1422 22.8469V16.2541C68.1422 16.0109 68.1077 15.8415 68.0385 15.7459C67.978 15.6417 67.8743 15.5722 67.7274 15.5375L67.2348 15.4723C67.0707 15.4289 66.954 15.3637 66.8849 15.2769C66.8157 15.1813 66.7812 15.0641 66.7812 14.9251C66.7812 14.76 66.8244 14.6297 66.9108 14.5342C67.0058 14.43 67.183 14.3301 67.4422 14.2345L70.2033 13.2182C70.5576 13.0793 70.8471 12.9794 71.0718 12.9186C71.2965 12.8578 71.5125 12.8274 71.7199 12.8274C72.031 12.8274 72.2644 12.9142 72.4199 13.0879C72.5841 13.2617 72.6662 13.4875 72.6662 13.7655V23.2117C72.6662 23.5157 72.6965 23.7329 72.757 23.8632C72.8261 23.9935 72.9298 24.0847 73.0681 24.1368L73.4699 24.2671C73.6427 24.3366 73.7681 24.4235 73.8458 24.5277C73.9236 24.6319 73.9625 24.7535 73.9625 24.8925C73.9625 25.0836 73.8977 25.2356 73.768 25.3485C73.6471 25.4615 73.4483 25.5179 73.1718 25.5179H70.1644C69.6546 25.5179 69.2138 25.3138 68.8422 24.9055C68.4706 24.4886 68.2848 23.9805 68.2848 23.3811ZM59.9368 21.8567V16.2541C59.9368 16.0109 59.9023 15.8415 59.8331 15.7459C59.764 15.6417 59.656 15.5722 59.5091 15.5375L59.0165 15.4723C58.8523 15.4289 58.7356 15.3637 58.6665 15.2769C58.5974 15.1813 58.5628 15.0641 58.5628 14.9251C58.5628 14.76 58.606 14.6297 58.6924 14.5342C58.7875 14.43 58.9646 14.3301 59.2239 14.2345L61.9849 13.2182C62.3652 13.0706 62.6633 12.9707 62.8794 12.9186C63.1041 12.8578 63.2985 12.8274 63.4627 12.8274C63.7911 12.8274 64.0374 12.9142 64.2016 13.0879C64.3744 13.2617 64.4608 13.4875 64.4608 13.7655V21.2182C64.4608 21.8784 64.6121 22.3735 64.9145 22.7036C65.2256 23.025 65.6448 23.1857 66.1719 23.1857C66.5089 23.1857 66.8589 23.1118 67.2219 22.9642C67.5935 22.8165 67.9521 22.5907 68.2978 22.2866L68.7904 21.8567L69.4385 22.5472L68.9848 22.9511C67.8441 24.0282 66.8503 24.7839 66.0034 25.2182C65.1565 25.6439 64.3658 25.8567 63.6312 25.8567C62.5337 25.8567 61.6436 25.4919 60.9609 24.7622C60.2782 24.0326 59.9368 23.0641 59.9368 21.8567Z" fill="black"/>
<path d="M80.4187 13.7655V23.2117C80.4187 23.5157 80.449 23.7329 80.5095 23.8632C80.57 23.9935 80.6693 24.0847 80.8076 24.1368L81.2094 24.2671C81.3909 24.3366 81.5206 24.4235 81.5983 24.5277C81.6761 24.6319 81.715 24.7535 81.715 24.8925C81.715 25.0836 81.6502 25.2356 81.5206 25.3485C81.3909 25.4615 81.1878 25.5179 80.9113 25.5179H75.3762C75.0997 25.5179 74.8966 25.4615 74.767 25.3485C74.646 25.2356 74.5855 25.0836 74.5855 24.8925C74.5855 24.7535 74.6244 24.6319 74.7022 24.5277C74.7799 24.4235 74.9053 24.3366 75.0781 24.2671L75.4929 24.1368C75.6312 24.076 75.7305 23.9848 75.791 23.8632C75.8602 23.7329 75.8947 23.5201 75.8947 23.2248V16.241C75.8947 16.0065 75.8602 15.8371 75.791 15.7329C75.7219 15.6287 75.6139 15.5635 75.467 15.5375L74.9744 15.4723C74.8102 15.4202 74.6935 15.3507 74.6244 15.2638C74.5553 15.177 74.5207 15.0641 74.5207 14.9251C74.5207 14.7514 74.5639 14.6167 74.6503 14.5212C74.7454 14.4256 74.9225 14.3301 75.1818 14.2345L77.9428 13.2182C78.3231 13.0706 78.6212 12.9663 78.8373 12.9055C79.062 12.8447 79.2564 12.8143 79.4206 12.8143C79.749 12.8143 79.9953 12.9055 80.1595 13.0879C80.3323 13.2617 80.4187 13.4875 80.4187 13.7655ZM77.878 11.2769C77.0571 11.2769 76.4046 11.0727 75.9207 10.6645C75.4367 10.2562 75.1948 9.71335 75.1948 9.03583C75.1948 8.35831 75.4367 7.81976 75.9207 7.42019C76.4046 7.02063 77.0571 6.82085 77.878 6.82085C78.699 6.82085 79.3515 7.02063 79.8354 7.42019C80.328 7.81976 80.5743 8.35831 80.5743 9.03583C80.5743 9.71335 80.328 10.2562 79.8354 10.6645C79.3515 11.0727 78.699 11.2769 77.878 11.2769Z" fill="black"/>
<path d="M91.31 23.329L91.1674 23.2899V9.42671C91.1674 9.1835 91.1329 9.01412 91.0637 8.91857C90.9946 8.81433 90.8909 8.74484 90.7526 8.7101L90.2471 8.64495C90.0915 8.60152 89.9749 8.53637 89.8971 8.44951C89.828 8.35396 89.7934 8.2367 89.7934 8.09772C89.7934 7.93268 89.8409 7.80239 89.936 7.70684C90.031 7.60261 90.2039 7.50271 90.4545 7.40717L93.2155 6.39088C93.5785 6.2519 93.8723 6.15201 94.097 6.0912C94.3217 6.0304 94.5377 6 94.7451 6C95.0562 6 95.2896 6.08686 95.4451 6.26059C95.6093 6.43431 95.6914 6.66015 95.6914 6.93811V23.2117C95.6914 23.5157 95.7217 23.7329 95.7822 23.8632C95.8427 23.9935 95.9464 24.0847 96.0933 24.1368L96.4951 24.2671C96.6679 24.3366 96.7933 24.4235 96.871 24.5277C96.9488 24.6319 96.9877 24.7535 96.9877 24.8925C96.9877 25.0836 96.9229 25.2356 96.7933 25.3485C96.6723 25.4615 96.4692 25.5179 96.184 25.5179H93.0859C92.602 25.5179 92.1828 25.3529 91.8285 25.0228C91.4829 24.684 91.31 24.2628 91.31 23.759V23.329ZM81.9898 19.6938C81.9898 18.304 82.2664 17.0923 82.8195 16.0586C83.3812 15.0163 84.1417 14.2128 85.1009 13.6482C86.0688 13.0749 87.1533 12.7883 88.3545 12.7883C89.3829 12.7883 90.2773 13.0141 91.0378 13.4658C91.8069 13.9175 92.4551 14.5907 92.9822 15.4853L91.8933 16.2932C91.4958 15.6678 91.0767 15.2117 90.636 14.9251C90.2039 14.6297 89.7329 14.4821 89.223 14.4821C88.7304 14.4821 88.2897 14.6471 87.9008 14.9772C87.512 15.2986 87.2095 15.8067 86.9934 16.5016C86.7774 17.1965 86.6694 18.1086 86.6694 19.2378C86.6694 20.2714 86.7774 21.114 86.9934 21.7655C87.2095 22.4169 87.5033 22.899 87.8749 23.2117C88.2551 23.5157 88.6872 23.6678 89.1712 23.6678C89.7156 23.6678 90.2168 23.4984 90.6749 23.1596C91.1415 22.8122 91.5779 22.2693 91.9841 21.5309L92.697 22.2997C91.997 23.4115 91.202 24.2845 90.3119 24.9186C89.4218 25.544 88.4237 25.8567 87.3175 25.8567C86.2891 25.8567 85.3731 25.5961 84.5694 25.0749C83.7744 24.5537 83.1435 23.8328 82.6769 22.9121C82.2189 21.9826 81.9898 20.9099 81.9898 19.6938Z" fill="black"/>
<path d="M109.893 17.7915C109.893 18.2953 109.75 18.6862 109.465 18.9642C109.189 19.2334 108.787 19.3681 108.26 19.3681H100.365V18.2606H104.747C105.179 18.2606 105.395 18.0565 105.395 17.6482C105.395 16.4843 105.227 15.633 104.889 15.0945C104.552 14.5472 104.112 14.2736 103.567 14.2736C103.152 14.2736 102.781 14.4126 102.452 14.6906C102.133 14.9685 101.878 15.3811 101.688 15.9283C101.498 16.4756 101.403 17.1531 101.403 17.9609C101.403 19.6026 101.774 20.8187 102.517 21.6091C103.269 22.3996 104.276 22.7948 105.538 22.7948C106.22 22.7948 106.825 22.6775 107.352 22.443C107.88 22.2085 108.325 21.835 108.688 21.3225C108.878 21.1401 109.025 21.0185 109.128 20.9577C109.232 20.8882 109.336 20.8534 109.439 20.8534C109.578 20.8534 109.681 20.9229 109.75 21.0619C109.82 21.2009 109.854 21.3702 109.854 21.57C109.837 22.3344 109.578 23.0467 109.076 23.7068C108.575 24.3583 107.888 24.8795 107.015 25.2704C106.151 25.6612 105.149 25.8567 104.008 25.8567C102.729 25.8567 101.588 25.5961 100.586 25.0749C99.592 24.5537 98.8056 23.8284 98.2266 22.899C97.6563 21.9696 97.3711 20.8795 97.3711 19.6287C97.3711 18.2649 97.639 17.0706 98.1748 16.0456C98.7106 15.0206 99.4883 14.2215 100.508 13.6482C101.528 13.0749 102.746 12.7883 104.164 12.7883C105.399 12.7883 106.441 13.0054 107.288 13.4397C108.143 13.8654 108.791 14.456 109.232 15.2117C109.673 15.9587 109.893 16.8187 109.893 17.7915Z" fill="black"/>
<path d="M116.259 13.7655V23.2248C116.259 23.5114 116.289 23.7199 116.35 23.8502C116.419 23.9805 116.522 24.076 116.661 24.1368L117.049 24.2801C117.317 24.4104 117.451 24.6015 117.451 24.8534C117.451 25.2964 117.179 25.5179 116.635 25.5179H111.229C110.953 25.5179 110.75 25.4615 110.62 25.3485C110.499 25.2356 110.439 25.0836 110.439 24.8925C110.439 24.7535 110.477 24.6319 110.555 24.5277C110.633 24.4235 110.758 24.3366 110.931 24.2671L111.346 24.1368C111.484 24.076 111.584 23.9848 111.644 23.8632C111.705 23.7329 111.735 23.5201 111.735 23.2248V16.241C111.735 16.0065 111.7 15.8371 111.631 15.7329C111.571 15.6287 111.467 15.5635 111.32 15.5375L110.827 15.4723C110.663 15.4202 110.542 15.3507 110.464 15.2638C110.395 15.177 110.361 15.0641 110.361 14.9251C110.361 14.76 110.408 14.6297 110.503 14.5342C110.598 14.43 110.776 14.3301 111.035 14.2345L113.796 13.2052C114.15 13.0662 114.44 12.9663 114.664 12.9055C114.889 12.8447 115.105 12.8143 115.312 12.8143C115.624 12.8143 115.857 12.9055 116.012 13.0879C116.177 13.2617 116.259 13.4875 116.259 13.7655ZM115.844 16.7883L115.196 16.0977L115.637 15.6938C116.777 14.6167 117.762 13.8654 118.592 13.4397C119.43 13.0054 120.217 12.7883 120.951 12.7883C122.066 12.7883 122.956 13.1531 123.622 13.8827C124.287 14.6037 124.62 15.5679 124.62 16.7752V23.2117C124.62 23.5157 124.65 23.7329 124.71 23.8632C124.78 23.9848 124.888 24.076 125.035 24.1368L125.385 24.2801C125.644 24.4104 125.773 24.6015 125.773 24.8534C125.773 25.2964 125.506 25.5179 124.97 25.5179H119.72C119.175 25.5179 118.903 25.2964 118.903 24.8534C118.903 24.6015 119.037 24.4104 119.305 24.2801L119.681 24.1368C119.836 24.076 119.945 23.9805 120.005 23.8502C120.065 23.7112 120.096 23.494 120.096 23.1987V17.4267C120.096 16.7666 119.949 16.2758 119.655 15.9544C119.361 15.6243 118.946 15.4593 118.411 15.4593C118.074 15.4593 117.728 15.5331 117.374 15.6808C117.019 15.8284 116.669 16.0543 116.324 16.3583L115.844 16.7883ZM124.192 16.7883L123.544 16.0977L123.985 15.6808C125.082 14.6471 126.028 13.9088 126.823 13.4658C127.618 13.0141 128.366 12.7883 129.066 12.7883C130.138 12.7883 130.976 13.1531 131.581 13.8827C132.194 14.6124 132.562 15.5809 132.683 16.7883L133.344 23.2117C133.378 23.5071 133.421 23.7242 133.473 23.8632C133.525 23.9935 133.62 24.0847 133.758 24.1368L134.134 24.2671C134.307 24.3366 134.432 24.4235 134.51 24.5277C134.588 24.6319 134.627 24.7535 134.627 24.8925C134.627 25.0836 134.562 25.2356 134.432 25.3485C134.312 25.4615 134.113 25.5179 133.836 25.5179H128.379C127.843 25.5179 127.575 25.2964 127.575 24.8534C127.575 24.6015 127.709 24.4104 127.977 24.2801L128.353 24.1368C128.509 24.076 128.625 23.9805 128.703 23.8502C128.781 23.7112 128.802 23.4897 128.768 23.1857L128.172 17.4267C128.102 16.7752 127.938 16.2845 127.679 15.9544C127.428 15.6243 127.048 15.4593 126.538 15.4593C126.244 15.4593 125.938 15.5375 125.618 15.6938C125.307 15.8502 124.991 16.0673 124.672 16.3453L124.192 16.7883Z" fill="black"/>
<path d="M147.036 17.7915C147.036 18.2953 146.894 18.6862 146.609 18.9642C146.332 19.2334 145.93 19.3681 145.403 19.3681H137.509V18.2606H141.89C142.322 18.2606 142.538 18.0565 142.538 17.6482C142.538 16.4843 142.37 15.633 142.033 15.0945C141.696 14.5472 141.255 14.2736 140.71 14.2736C140.296 14.2736 139.924 14.4126 139.596 14.6906C139.276 14.9685 139.021 15.3811 138.831 15.9283C138.641 16.4756 138.546 17.1531 138.546 17.9609C138.546 19.6026 138.917 20.8187 139.661 21.6091C140.412 22.3996 141.419 22.7948 142.681 22.7948C143.364 22.7948 143.968 22.6775 144.496 22.443C145.023 22.2085 145.468 21.835 145.831 21.3225C146.021 21.1401 146.168 21.0185 146.271 20.9577C146.375 20.8882 146.479 20.8534 146.583 20.8534C146.721 20.8534 146.825 20.9229 146.894 21.0619C146.963 21.2009 146.997 21.3702 146.997 21.57C146.98 22.3344 146.721 23.0467 146.22 23.7068C145.718 24.3583 145.031 24.8795 144.159 25.2704C143.294 25.6612 142.292 25.8567 141.151 25.8567C139.872 25.8567 138.732 25.5961 137.729 25.0749C136.735 24.5537 135.949 23.8284 135.37 22.899C134.799 21.9696 134.514 20.8795 134.514 19.6287C134.514 18.2649 134.782 17.0706 135.318 16.0456C135.854 15.0206 136.632 14.2215 137.651 13.6482C138.671 13.0749 139.89 12.7883 141.307 12.7883C142.543 12.7883 143.584 13.0054 144.431 13.4397C145.286 13.8654 145.934 14.456 146.375 15.2117C146.816 15.9587 147.036 16.8187 147.036 17.7915Z" fill="black"/>
<path d="M160 17.7915C160 18.2953 159.857 18.6862 159.572 18.9642C159.296 19.2334 158.894 19.3681 158.367 19.3681H150.472V18.2606H154.854C155.286 18.2606 155.502 18.0565 155.502 17.6482C155.502 16.4843 155.333 15.633 154.996 15.0945C154.659 14.5472 154.219 14.2736 153.674 14.2736C153.259 14.2736 152.888 14.4126 152.559 14.6906C152.24 14.9685 151.985 15.3811 151.795 15.9283C151.604 16.4756 151.509 17.1531 151.509 17.9609C151.509 19.6026 151.881 20.8187 152.624 21.6091C153.376 22.3996 154.383 22.7948 155.645 22.7948C156.327 22.7948 156.932 22.6775 157.459 22.443C157.986 22.2085 158.432 21.835 158.794 21.3225C158.985 21.1401 159.132 21.0185 159.235 20.9577C159.339 20.8882 159.443 20.8534 159.546 20.8534C159.685 20.8534 159.788 20.9229 159.857 21.0619C159.927 21.2009 159.961 21.3702 159.961 21.57C159.944 22.3344 159.685 23.0467 159.183 23.7068C158.682 24.3583 157.995 24.8795 157.122 25.2704C156.258 25.6612 155.256 25.8567 154.115 25.8567C152.836 25.8567 151.695 25.5961 150.693 25.0749C149.699 24.5537 148.913 23.8284 148.334 22.899C147.763 21.9696 147.478 20.8795 147.478 19.6287C147.478 18.2649 147.746 17.0706 148.282 16.0456C148.818 15.0206 149.595 14.2215 150.615 13.6482C151.635 13.0749 152.853 12.7883 154.27 12.7883C155.506 12.7883 156.548 13.0054 157.395 13.4397C158.25 13.8654 158.898 14.456 159.339 15.2117C159.78 15.9587 160 16.8187 160 17.7915Z" fill="black"/>
</svg>
